REM DIRINDEX 1\2\5,1\2\6,1\2\7,1\2\8,1\3\9,1\3\10,1\3\11,1\4\12,1\4\13,1\4\14,1\4\15,1\4\16
REM DIRNAME cjc034,folder01,folder02,folder03,folder04,folder05,folder06,folder07,folder08,folder09,folder10,folder11,folder12,folder13,folder14,folder15
TITLE ""
FILE "1200_sec03_0738_0746.mp3" MP3
  TRACK 01 AUDIO
    TITLE "0:"
    INDEX 01 00:00:00
  TRACK 02 AUDIO
    TITLE "12:cjc034_06612"
    INDEX 01 00:00:19
  TRACK 03 AUDIO
    TITLE "0:"
    INDEX 01 00:01:28
  TRACK 04 AUDIO
    TITLE "13:cjc034_06613"
    INDEX 01 00:01:62
  TRACK 05 AUDIO
    TITLE "0:"
    INDEX 01 00:04:68
  TRACK 06 AUDIO
    TITLE "14:cjc034_06614"
    INDEX 01 00:05:28
  TRACK 07 AUDIO
    TITLE "0:"
    INDEX 01 00:06:39
  TRACK 08 AUDIO
    TITLE "15:cjc034_06615"
    INDEX 01 00:06:71
  TRACK 09 AUDIO
    TITLE "0:"
    INDEX 01 00:11:05
  TRACK 10 AUDIO
    TITLE "12:cjc034_06616"
    INDEX 01 00:12:40
  TRACK 11 AUDIO
    TITLE "0:"
    INDEX 01 00:13:55
  TRACK 12 AUDIO
    TITLE "13:cjc034_06617"
    INDEX 01 00:14:17
  TRACK 13 AUDIO
    TITLE "0:"
    INDEX 01 00:17:25
  TRACK 14 AUDIO
    TITLE "14:cjc034_06618"
    INDEX 01 00:17:57
  TRACK 15 AUDIO
    TITLE "0:"
    INDEX 01 00:18:72
  TRACK 16 AUDIO
    TITLE "15:cjc034_06619"
    INDEX 01 00:19:34
  TRACK 17 AUDIO
    TITLE "0:"
    INDEX 01 00:22:72
  TRACK 18 AUDIO
    TITLE "12:cjc034_06620"
    INDEX 01 00:24:35
  TRACK 19 AUDIO
    TITLE "0:"
    INDEX 01 00:25:58
  TRACK 20 AUDIO
    TITLE "13:cjc034_06621"
    INDEX 01 00:26:22
  TRACK 21 AUDIO
    TITLE "0:"
    INDEX 01 00:28:72
  TRACK 22 AUDIO
    TITLE "14:cjc034_06622"
    INDEX 01 00:29:33
  TRACK 23 AUDIO
    TITLE "0:"
    INDEX 01 00:30:57
  TRACK 24 AUDIO
    TITLE "15:cjc034_06623"
    INDEX 01 00:31:22
  TRACK 25 AUDIO
    TITLE "0:"
    INDEX 01 00:35:74
  TRACK 26 AUDIO
    TITLE "16:cjc034_06624"
    INDEX 01 00:37:30
  TRACK 27 AUDIO
    TITLE "0:"
    INDEX 01 00:41:38
  TRACK 28 AUDIO
    TITLE "12:cjc034_06625"
    INDEX 01 00:42:41
  TRACK 29 AUDIO
    TITLE "0:"
    INDEX 01 00:43:46
  TRACK 30 AUDIO
    TITLE "13:cjc034_06626"
    INDEX 01 00:44:05
  TRACK 31 AUDIO
    TITLE "0:"
    INDEX 01 00:45:14
  TRACK 32 AUDIO
    TITLE "14:cjc034_06627"
    INDEX 01 00:45:49
  TRACK 33 AUDIO
    TITLE "0:"
    INDEX 01 00:46:54
  TRACK 34 AUDIO
    TITLE "15:cjc034_06628"
    INDEX 01 00:47:15
  TRACK 35 AUDIO
    TITLE "0:"
    INDEX 01 00:50:44
  TRACK 36 AUDIO
    TITLE "12:cjc034_06629"
    INDEX 01 00:52:06
  TRACK 37 AUDIO
    TITLE "0:"
    INDEX 01 00:53:17
  TRACK 38 AUDIO
    TITLE "13:cjc034_06630"
    INDEX 01 00:53:51
  TRACK 39 AUDIO
    TITLE "0:"
    INDEX 01 00:54:68
  TRACK 40 AUDIO
    TITLE "14:cjc034_06631"
    INDEX 01 00:55:30
  TRACK 41 AUDIO
    TITLE "0:"
    INDEX 01 00:56:41
  TRACK 42 AUDIO
    TITLE "15:cjc034_06632"
    INDEX 01 00:57:01
  TRACK 43 AUDIO
    TITLE "0:"
    INDEX 01 01:03:12
  TRACK 44 AUDIO
    TITLE "12:cjc034_06633"
    INDEX 01 01:04:50
  TRACK 45 AUDIO
    TITLE "0:"
    INDEX 01 01:05:62
  TRACK 46 AUDIO
    TITLE "13:cjc034_06634"
    INDEX 01 01:06:24
  TRACK 47 AUDIO
    TITLE "0:"
    INDEX 01 01:08:44
  TRACK 48 AUDIO
    TITLE "14:cjc034_06635"
    INDEX 01 01:09:01
  TRACK 49 AUDIO
    TITLE "0:"
    INDEX 01 01:10:14
  TRACK 50 AUDIO
    TITLE "15:cjc034_06636"
    INDEX 01 01:10:51
  TRACK 51 AUDIO
    TITLE "0:"
    INDEX 01 01:15:09
  TRACK 52 AUDIO
    TITLE "12:cjc034_06637"
    INDEX 01 01:16:44
  TRACK 53 AUDIO
    TITLE "0:"
    INDEX 01 01:17:57
  TRACK 54 AUDIO
    TITLE "13:cjc034_06638"
    INDEX 01 01:18:15
  TRACK 55 AUDIO
    TITLE "0:"
    INDEX 01 01:19:30
  TRACK 56 AUDIO
    TITLE "14:cjc034_06639"
    INDEX 01 01:19:62
  TRACK 57 AUDIO
    TITLE "0:"
    INDEX 01 01:21:00
  TRACK 58 AUDIO
    TITLE "15:cjc034_06640"
    INDEX 01 01:21:35
  TRACK 59 AUDIO
    TITLE "0:"
    INDEX 01 01:25:43
  TRACK 60 AUDIO
    TITLE "12:cjc034_06641"
    INDEX 01 01:27:04
  TRACK 61 AUDIO
    TITLE "0:"
    INDEX 01 01:28:33
  TRACK 62 AUDIO
    TITLE "13:cjc034_06642"
    INDEX 01 01:28:67
  TRACK 63 AUDIO
    TITLE "0:"
    INDEX 01 01:30:13
  TRACK 64 AUDIO
    TITLE "14:cjc034_06643"
    INDEX 01 01:30:46
  TRACK 65 AUDIO
    TITLE "0:"
    INDEX 01 01:31:73
  TRACK 66 AUDIO
    TITLE "15:cjc034_06644"
    INDEX 01 01:32:33
  TRACK 67 AUDIO
    TITLE "0:"
    INDEX 01 01:35:35
  TRACK 68 AUDIO
    TITLE "12:cjc034_06645"
    INDEX 01 01:36:66
  TRACK 69 AUDIO
    TITLE "0:"
    INDEX 01 01:38:10
  TRACK 70 AUDIO
    TITLE "13:cjc034_06646"
    INDEX 01 01:38:43
  TRACK 71 AUDIO
    TITLE "0:"
    INDEX 01 01:40:66
  TRACK 72 AUDIO
    TITLE "14:cjc034_06647"
    INDEX 01 01:41:26
  TRACK 73 AUDIO
    TITLE "0:"
    INDEX 01 01:42:45
  TRACK 74 AUDIO
    TITLE "15:cjc034_06648"
    INDEX 01 01:43:03
  TRACK 75 AUDIO
    TITLE "0:"
    INDEX 01 01:45:65
